<?xml version="1.0" encoding="UTF-8"?>
<!-- Generated by Pixelmator Pro 3.6.13 -->
<svg width="129.70071" height="40" viewBox="0 0 562 166" xmlns="http://www.w3.org/2000/svg">
    <g id="artwork">
        <g id="g1">
            <g id="g2">
                <g id="g3">
                    <path id="path1" fill="#000000" stroke="none" d="M 541.666626 165.999161 L 20.833326 165.999161 C 9.374994 165.999161 2e-06 156.624161 2e-06 145.165833 L 2e-06 20.165833 C 2e-06 8.707504 9.374994 -0.667496 20.833326 -0.667496 L 541.666626 -0.667496 C 553.125 -0.667496 562.5 8.707504 562.5 20.165833 L 562.5 145.165833 C 562.5 156.624161 553.125 165.999161 541.666626 165.999161 Z"/>
                </g>
                <g id="g4">
                    <g id="g5">
                        <path id="path2" fill="#a6a6a6" stroke="none" d="M 541.666626 2.665833 C 551.316223 2.665833 559.16626 10.516663 559.16626 20.166672 L 559.16626 145.166672 C 559.16626 154.816254 551.316223 162.667496 541.666626 162.667496 L 20.833326 162.667496 C 11.183335 162.667496 3.33334 154.816254 3.33334 145.166672 L 3.33334 20.166672 C 3.33334 10.516663 11.183335 2.665833 20.833326 2.665833 L 541.666626 2.665833 M 541.666626 -0.666672 L 20.833326 -0.666672 C 9.374994 -0.666672 2e-06 8.708328 2e-06 20.166672 L 2e-06 145.166672 C 2e-06 156.625 9.374994 166 20.833326 166 L 541.666626 166 C 553.125 166 562.5 156.625 562.5 145.166672 L 562.5 20.166672 C 562.5 8.708328 553.125 -0.666672 541.666626 -0.666672 L 541.666626 -0.666672 Z"/>
                    </g>
                </g>
                <g id="g6">
                    <path id="path3" fill="#ea4335" stroke="none" d="M 86.321838 80.266655 L 41.96125 127.349815 C 41.963875 127.359283 41.965542 127.369141 41.968182 127.378601 C 43.329201 132.490356 47.997627 136.255432 53.540493 136.255432 C 55.754829 136.255432 57.835175 135.656097 59.619358 134.60556 L 59.760357 134.52095 L 109.693268 105.710007 L 86.321838 80.266655 Z"/>
                    <path id="path4" fill="#fbbc04" stroke="none" d="M 131.200424 72.249283 L 131.158112 72.2211 L 109.601112 59.722488 L 85.314552 81.335762 L 109.686768 105.703423 L 131.129913 93.330856 C 134.888596 91.300255 137.441422 87.337776 137.441422 82.768944 C 137.441422 78.228302 134.923874 74.286949 131.200424 72.249283 Z"/>
                    <path id="path5" fill="#4285f4" stroke="none" d="M 41.958359 37.987656 C 41.692364 38.971245 41.552094 40.003624 41.552094 41.071167 L 41.552094 124.269272 C 41.552094 125.337631 41.691376 126.37114 41.961205 127.349777 L 87.847435 81.472099 L 41.958359 37.987656 Z"/>
                    <path id="path6" fill="#34a853" stroke="none" d="M 86.649094 82.670219 L 109.607704 59.715897 L 59.732178 30.798309 C 57.9198 29.712524 55.804199 29.085007 53.540493 29.085007 C 47.997627 29.085007 43.322144 32.857101 41.961109 37.975906 C 41.960041 37.979828 41.959393 37.983871 41.958309 37.987793 L 86.649094 82.670219 Z"/>
                </g>
            </g>
        </g>
        <text id="Google-Play" xml:space="preserve"><tspan x="166" y="73" font-family="Helvetica" font-size="47.916667" fill="#ffffff" xml:space="preserve">Google Play</tspan><tspan font-family="Helvetica" font-size="47.916667" fill="#ffffff" xml:space="preserve">에서</tspan></text>
        <text id="text1" xml:space="preserve" x="165" y="130" font-family="Helvetica" font-size="36.25" fill="#ffffff">다운로드</text>
    </g>
</svg>
